@startuml
skinparam monochrome true
skinparam packageStyle rectangle
skinparam shadowing false

'left to right direction

skinparam classAttributeIconSize 0

hide circle
hide methods

title Domain Model - US002

class Person {
    name
    taxNumber
    emailAddress
    telephoneNumber
}

class Role {
    id
    description
}

class Owner {
}

class PassportCard {
    passportCardNumber
}

class Adress{
    street
    city
    district
    state
    zipCode
}

class Equipment{
    name
}

class Apartment{
}

class Land{
}


class TypeOfTransaction{
    transactionType
    monetaryValue
}

class Photo{
    photoID
    phatToPNG
}

class Property {
    areaOfProperty
    distanceFromCentre
    dateOfAcceptance
    dateOfRequest
}

class Building {
    bedrooms
    bathrooms
    parkingSpaces
    availableEquipment
}

class House{
    basement
    loft
    sunExposure
}

class Agent{
    comissionType
    comissionAmount
    role
}

class Lease{

    duration
}

Role --* Person
PassportCard -* Person
Adress -up* Person
Owner --up|> Person
Owner "1" -> "1" Property : > creates the property
Lease --* Property
Property <|-- Land
Property <|-- Building
Building <|-- House
Equipment -up* Building
Agent "1" --> "1" PropertyRepository : > sends agent information
Owner "1" --> "1" PropertyRepository : > sends owner information
Property "1  " <-- "1   " Agent : < wants to input information
Property "1" - "1" PropertyRepository : > wants to store the property
PropertyRepository "1" -> "1" AnnouncementRepository : publishes announcement >
Apartment --up|> Building
Photo --* Property
TypeOfTransaction --* Property
Adress --* Property
@enduml