@startuml
skinparam monochrome true
skinparam packageStyle rectangle
skinparam shadowing false
'skinparam linetype ortho
'left to right direction
skinparam classAttributeIconSize 20
hide circle
hide methods

title Domain Model

class Person {
    name
    taxNumber
    emailAddress
    telephoneNumber
}

class User {
    name
    emailAddress
    password
}

class Apartment {

}

class PassportCard {
    passportNumber
}

class Role {
    id
    description
}

class Owner {
}

class Agency {
    id
    agencyName
    emailAddress
    telephoneNumber
}

class Property {
    areaOfProperty
    distanceFromCentre
    dateOfAcceptance
    dateOfRequest
}

class TypeOfTransaction{
    transactionType
    monetaryValue
}

class Photo{
    photoID
    pathToPNG
}

class PropertyType {
    designation
}

class Building {
    bedrooms
    bathrooms
    parkingSpaces
    availableEquipment
}

class House{
    basement
    loft
    sunExposure
}

class Agent{
}

class Address{
    street
    city
    district
    state
    zipCode
}

class AnnouncementRepository{
}

class Equipment{
    name
}

class Employee{
}

class PropertyRepository{}

Employee -up|> Person
Employee --|> User
Agency --* Employee
User <|- Owner
Employee <|- Agent
Owner -up|> Person
Person *-up Role
Person *- PassportCard
Property <|--- Land
Property *-down PropertyType
PropertyRepository "1 " <-- "1 " Agent : < sends agent information
Property "1" --> "1" PropertyRepository : > wants to store the property
Property "1 " <- "1" Agent : wants to input information
Property <|-- Building
TypeOfTransaction  --* Property
Building <|-left House
Owner -> Property : > creates the property
Owner "1 " --> "1 " PropertyRepository : > sends owner information
PropertyRepository "1" -down> "1" AnnouncementRepository : > publishes announcement
Equipment -left* Building
Photo --* Property
Person *-down Address
Address --* Property
Address --* Agency
Apartment --up|> Building
@enduml